<?xml version="1.0" encoding="utf-8"?>
<svg xmlns="http://www.w3.org/2000/svg" xmlns:xlink="http://www.w3.org/1999/xlink" style="margin: auto; background: rgb(28, 35, 35); display: block; z-index: 1; position: relative; shape-rendering: crispedges;" width="2245" height="1207" preserveAspectRatio="xMidYMid" viewBox="0 0 2245 1207">
<g transform="translate(1122.5,603.5) scale(1,1) translate(-1122.5,-603.5)"><g transform="translate(-100 631.7494278475447) rotate(0)">
  <animateTransform attributeName="transform" type="translate" keyTimes="0;1" values="-100 631.7494278475447;2245 631.7494278475447" dur="250s" repeatCount="indefinite" begin="-139.67313611842008s"></animateTransform>
  <path d="M84.717,33.597c0.791-2.503,1.186-5.138,1.186-7.773C85.903,11.594,74.308,0,60.079,0 c-9.881,0-18.445,5.534-22.793,13.702c-1.581-0.527-3.426-0.791-5.138-0.791c-9.486,0-17.128,7.642-17.128,17.128 c0,1.186,0.132,2.372,0.395,3.426C6.719,34.783,0,42.424,0,51.515C0,61.66,8.169,69.829,18.314,69.829h63.373 C91.831,69.829,100,61.66,100,51.515C99.868,42.556,93.281,35.046,84.717,33.597z" fill="rgba(255, 255, 255, 0.17368951612903216)" transform="scale(0.542)"></path>
</g><g transform="translate(-100 887.1537869642614) rotate(0)">
  <animateTransform attributeName="transform" type="translate" keyTimes="0;1" values="-100 887.1537869642614;2245 887.1537869642614" dur="250s" repeatCount="indefinite" begin="-89.15138022695324s"></animateTransform>
  <path d="M84.717,33.597c0.791-2.503,1.186-5.138,1.186-7.773C85.903,11.594,74.308,0,60.079,0 c-9.881,0-18.445,5.534-22.793,13.702c-1.581-0.527-3.426-0.791-5.138-0.791c-9.486,0-17.128,7.642-17.128,17.128 c0,1.186,0.132,2.372,0.395,3.426C6.719,34.783,0,42.424,0,51.515C0,61.66,8.169,69.829,18.314,69.829h63.373 C91.831,69.829,100,61.66,100,51.515C99.868,42.556,93.281,35.046,84.717,33.597z" fill="rgba(255, 255, 255, 0.17368951612903216)" transform="scale(0.542)"></path>
</g><g transform="translate(-100 1035.4754071025686) rotate(0)">
  <animateTransform attributeName="transform" type="translate" keyTimes="0;1" values="-100 1035.4754071025686;2245 1035.4754071025686" dur="250s" repeatCount="indefinite" begin="-156.6269402269029s"></animateTransform>
  <path d="M84.717,33.597c0.791-2.503,1.186-5.138,1.186-7.773C85.903,11.594,74.308,0,60.079,0 c-9.881,0-18.445,5.534-22.793,13.702c-1.581-0.527-3.426-0.791-5.138-0.791c-9.486,0-17.128,7.642-17.128,17.128 c0,1.186,0.132,2.372,0.395,3.426C6.719,34.783,0,42.424,0,51.515C0,61.66,8.169,69.829,18.314,69.829h63.373 C91.831,69.829,100,61.66,100,51.515C99.868,42.556,93.281,35.046,84.717,33.597z" fill="rgba(255, 255, 255, 0.17368951612903216)" transform="scale(0.542)"></path>
</g><g transform="translate(-100 601.9137097236846) rotate(0)">
  <animateTransform attributeName="transform" type="translate" keyTimes="0;1" values="-100 601.9137097236846;2245 601.9137097236846" dur="250s" repeatCount="indefinite" begin="-165.9714544215568s"></animateTransform>
  <path d="M84.717,33.597c0.791-2.503,1.186-5.138,1.186-7.773C85.903,11.594,74.308,0,60.079,0 c-9.881,0-18.445,5.534-22.793,13.702c-1.581-0.527-3.426-0.791-5.138-0.791c-9.486,0-17.128,7.642-17.128,17.128 c0,1.186,0.132,2.372,0.395,3.426C6.719,34.783,0,42.424,0,51.515C0,61.66,8.169,69.829,18.314,69.829h63.373 C91.831,69.829,100,61.66,100,51.515C99.868,42.556,93.281,35.046,84.717,33.597z" fill="rgba(255, 255, 255, 0.17368951612903216)" transform="scale(0.542)"></path>
</g><g transform="translate(-100 1044.757875872054) rotate(0)">
  <animateTransform attributeName="transform" type="translate" keyTimes="0;1" values="-100 1044.757875872054;2245 1044.757875872054" dur="250s" repeatCount="indefinite" begin="-181.95213821354906s"></animateTransform>
  <path d="M84.717,33.597c0.791-2.503,1.186-5.138,1.186-7.773C85.903,11.594,74.308,0,60.079,0 c-9.881,0-18.445,5.534-22.793,13.702c-1.581-0.527-3.426-0.791-5.138-0.791c-9.486,0-17.128,7.642-17.128,17.128 c0,1.186,0.132,2.372,0.395,3.426C6.719,34.783,0,42.424,0,51.515C0,61.66,8.169,69.829,18.314,69.829h63.373 C91.831,69.829,100,61.66,100,51.515C99.868,42.556,93.281,35.046,84.717,33.597z" fill="rgba(255, 255, 255, 0.17368951612903216)" transform="scale(0.542)"></path>
</g><g transform="translate(-100 720.2739603980101) rotate(0)">
  <animateTransform attributeName="transform" type="translate" keyTimes="0;1" values="-100 720.2739603980101;2245 720.2739603980101" dur="250s" repeatCount="indefinite" begin="-192.6861100260696s"></animateTransform>
  <path d="M84.717,33.597c0.791-2.503,1.186-5.138,1.186-7.773C85.903,11.594,74.308,0,60.079,0 c-9.881,0-18.445,5.534-22.793,13.702c-1.581-0.527-3.426-0.791-5.138-0.791c-9.486,0-17.128,7.642-17.128,17.128 c0,1.186,0.132,2.372,0.395,3.426C6.719,34.783,0,42.424,0,51.515C0,61.66,8.169,69.829,18.314,69.829h63.373 C91.831,69.829,100,61.66,100,51.515C99.868,42.556,93.281,35.046,84.717,33.597z" fill="rgba(255, 255, 255, 0.17368951612903216)" transform="scale(0.542)"></path>
</g><g transform="translate(-100 726.8884627362993) rotate(0)">
  <animateTransform attributeName="transform" type="translate" keyTimes="0;1" values="-100 726.8884627362993;2245 726.8884627362993" dur="250s" repeatCount="indefinite" begin="-200.1885259997554s"></animateTransform>
  <path d="M84.717,33.597c0.791-2.503,1.186-5.138,1.186-7.773C85.903,11.594,74.308,0,60.079,0 c-9.881,0-18.445,5.534-22.793,13.702c-1.581-0.527-3.426-0.791-5.138-0.791c-9.486,0-17.128,7.642-17.128,17.128 c0,1.186,0.132,2.372,0.395,3.426C6.719,34.783,0,42.424,0,51.515C0,61.66,8.169,69.829,18.314,69.829h63.373 C91.831,69.829,100,61.66,100,51.515C99.868,42.556,93.281,35.046,84.717,33.597z" fill="rgba(255, 255, 255, 0.17368951612903216)" transform="scale(0.542)"></path>
</g><g transform="translate(-100 189.52498522848373) rotate(0)">
  <animateTransform attributeName="transform" type="translate" keyTimes="0;1" values="-100 189.52498522848373;2245 189.52498522848373" dur="250s" repeatCount="indefinite" begin="-25.544970267015188s"></animateTransform>
  <path d="M84.717,33.597c0.791-2.503,1.186-5.138,1.186-7.773C85.903,11.594,74.308,0,60.079,0 c-9.881,0-18.445,5.534-22.793,13.702c-1.581-0.527-3.426-0.791-5.138-0.791c-9.486,0-17.128,7.642-17.128,17.128 c0,1.186,0.132,2.372,0.395,3.426C6.719,34.783,0,42.424,0,51.515C0,61.66,8.169,69.829,18.314,69.829h63.373 C91.831,69.829,100,61.66,100,51.515C99.868,42.556,93.281,35.046,84.717,33.597z" fill="rgba(255, 255, 255, 0.17368951612903216)" transform="scale(0.542)"></path>
</g><g transform="translate(-100 737.2405477629773) rotate(0)">
  <animateTransform attributeName="transform" type="translate" keyTimes="0;1" values="-100 737.2405477629773;2245 737.2405477629773" dur="250s" repeatCount="indefinite" begin="-166.96122261360412s"></animateTransform>
  <path d="M84.717,33.597c0.791-2.503,1.186-5.138,1.186-7.773C85.903,11.594,74.308,0,60.079,0 c-9.881,0-18.445,5.534-22.793,13.702c-1.581-0.527-3.426-0.791-5.138-0.791c-9.486,0-17.128,7.642-17.128,17.128 c0,1.186,0.132,2.372,0.395,3.426C6.719,34.783,0,42.424,0,51.515C0,61.66,8.169,69.829,18.314,69.829h63.373 C91.831,69.829,100,61.66,100,51.515C99.868,42.556,93.281,35.046,84.717,33.597z" fill="rgba(255, 255, 255, 0.17368951612903216)" transform="scale(0.542)"></path>
</g><g transform="translate(-100 560.9790423660803) rotate(0)">
  <animateTransform attributeName="transform" type="translate" keyTimes="0;1" values="-100 560.9790423660803;2245 560.9790423660803" dur="250s" repeatCount="indefinite" begin="-178.89662510189459s"></animateTransform>
  <path d="M84.717,33.597c0.791-2.503,1.186-5.138,1.186-7.773C85.903,11.594,74.308,0,60.079,0 c-9.881,0-18.445,5.534-22.793,13.702c-1.581-0.527-3.426-0.791-5.138-0.791c-9.486,0-17.128,7.642-17.128,17.128 c0,1.186,0.132,2.372,0.395,3.426C6.719,34.783,0,42.424,0,51.515C0,61.66,8.169,69.829,18.314,69.829h63.373 C91.831,69.829,100,61.66,100,51.515C99.868,42.556,93.281,35.046,84.717,33.597z" fill="rgba(255, 255, 255, 0.17368951612903216)" transform="scale(0.542)"></path>
</g><g transform="translate(-100 1124.4894607792216) rotate(0)">
  <animateTransform attributeName="transform" type="translate" keyTimes="0;1" values="-100 1124.4894607792216;2245 1124.4894607792216" dur="250s" repeatCount="indefinite" begin="-223.53449662902403s"></animateTransform>
  <path d="M84.717,33.597c0.791-2.503,1.186-5.138,1.186-7.773C85.903,11.594,74.308,0,60.079,0 c-9.881,0-18.445,5.534-22.793,13.702c-1.581-0.527-3.426-0.791-5.138-0.791c-9.486,0-17.128,7.642-17.128,17.128 c0,1.186,0.132,2.372,0.395,3.426C6.719,34.783,0,42.424,0,51.515C0,61.66,8.169,69.829,18.314,69.829h63.373 C91.831,69.829,100,61.66,100,51.515C99.868,42.556,93.281,35.046,84.717,33.597z" fill="rgba(255, 255, 255, 0.17368951612903216)" transform="scale(0.542)"></path>
</g><g transform="translate(-100 429.28898985337827) rotate(0)">
  <animateTransform attributeName="transform" type="translate" keyTimes="0;1" values="-100 429.28898985337827;2245 429.28898985337827" dur="250s" repeatCount="indefinite" begin="-78.14022187295072s"></animateTransform>
  <path d="M84.717,33.597c0.791-2.503,1.186-5.138,1.186-7.773C85.903,11.594,74.308,0,60.079,0 c-9.881,0-18.445,5.534-22.793,13.702c-1.581-0.527-3.426-0.791-5.138-0.791c-9.486,0-17.128,7.642-17.128,17.128 c0,1.186,0.132,2.372,0.395,3.426C6.719,34.783,0,42.424,0,51.515C0,61.66,8.169,69.829,18.314,69.829h63.373 C91.831,69.829,100,61.66,100,51.515C99.868,42.556,93.281,35.046,84.717,33.597z" fill="rgba(255, 255, 255, 0.17368951612903216)" transform="scale(0.542)"></path>
</g><g transform="translate(-100 701.4210611720221) rotate(0)">
  <animateTransform attributeName="transform" type="translate" keyTimes="0;1" values="-100 701.4210611720221;2245 701.4210611720221" dur="125s" repeatCount="indefinite" begin="-129.814097503654s"></animateTransform>
  <path d="M84.717,33.597c0.791-2.503,1.186-5.138,1.186-7.773C85.903,11.594,74.308,0,60.079,0 c-9.881,0-18.445,5.534-22.793,13.702c-1.581-0.527-3.426-0.791-5.138-0.791c-9.486,0-17.128,7.642-17.128,17.128 c0,1.186,0.132,2.372,0.395,3.426C6.719,34.783,0,42.424,0,51.515C0,61.66,8.169,69.829,18.314,69.829h63.373 C91.831,69.829,100,61.66,100,51.515C99.868,42.556,93.281,35.046,84.717,33.597z" fill="rgba(255, 255, 255, 0.17368951612903216)" transform="scale(0.6280000000000001)"></path>
</g><g transform="translate(-100 208.1881439231282) rotate(0)">
  <animateTransform attributeName="transform" type="translate" keyTimes="0;1" values="-100 208.1881439231282;2245 208.1881439231282" dur="125s" repeatCount="indefinite" begin="-179.42171897648524s"></animateTransform>
  <path d="M84.717,33.597c0.791-2.503,1.186-5.138,1.186-7.773C85.903,11.594,74.308,0,60.079,0 c-9.881,0-18.445,5.534-22.793,13.702c-1.581-0.527-3.426-0.791-5.138-0.791c-9.486,0-17.128,7.642-17.128,17.128 c0,1.186,0.132,2.372,0.395,3.426C6.719,34.783,0,42.424,0,51.515C0,61.66,8.169,69.829,18.314,69.829h63.373 C91.831,69.829,100,61.66,100,51.515C99.868,42.556,93.281,35.046,84.717,33.597z" fill="rgba(255, 255, 255, 0.17368951612903216)" transform="scale(0.6280000000000001)"></path>
</g><g transform="translate(-100 668.5245321582614) rotate(0)">
  <animateTransform attributeName="transform" type="translate" keyTimes="0;1" values="-100 668.5245321582614;2245 668.5245321582614" dur="125s" repeatCount="indefinite" begin="-158.59650613450287s"></animateTransform>
  <path d="M84.717,33.597c0.791-2.503,1.186-5.138,1.186-7.773C85.903,11.594,74.308,0,60.079,0 c-9.881,0-18.445,5.534-22.793,13.702c-1.581-0.527-3.426-0.791-5.138-0.791c-9.486,0-17.128,7.642-17.128,17.128 c0,1.186,0.132,2.372,0.395,3.426C6.719,34.783,0,42.424,0,51.515C0,61.66,8.169,69.829,18.314,69.829h63.373 C91.831,69.829,100,61.66,100,51.515C99.868,42.556,93.281,35.046,84.717,33.597z" fill="rgba(255, 255, 255, 0.17368951612903216)" transform="scale(0.6280000000000001)"></path>
</g><g transform="translate(-100 881.0684309537485) rotate(0)">
  <animateTransform attributeName="transform" type="translate" keyTimes="0;1" values="-100 881.0684309537485;2245 881.0684309537485" dur="125s" repeatCount="indefinite" begin="-76.58281061576582s"></animateTransform>
  <path d="M84.717,33.597c0.791-2.503,1.186-5.138,1.186-7.773C85.903,11.594,74.308,0,60.079,0 c-9.881,0-18.445,5.534-22.793,13.702c-1.581-0.527-3.426-0.791-5.138-0.791c-9.486,0-17.128,7.642-17.128,17.128 c0,1.186,0.132,2.372,0.395,3.426C6.719,34.783,0,42.424,0,51.515C0,61.66,8.169,69.829,18.314,69.829h63.373 C91.831,69.829,100,61.66,100,51.515C99.868,42.556,93.281,35.046,84.717,33.597z" fill="rgba(255, 255, 255, 0.17368951612903216)" transform="scale(0.6280000000000001)"></path>
</g><g transform="translate(-100 798.3331773089509) rotate(0)">
  <animateTransform attributeName="transform" type="translate" keyTimes="0;1" values="-100 798.3331773089509;2245 798.3331773089509" dur="125s" repeatCount="indefinite" begin="-246.67586800488823s"></animateTransform>
  <path d="M84.717,33.597c0.791-2.503,1.186-5.138,1.186-7.773C85.903,11.594,74.308,0,60.079,0 c-9.881,0-18.445,5.534-22.793,13.702c-1.581-0.527-3.426-0.791-5.138-0.791c-9.486,0-17.128,7.642-17.128,17.128 c0,1.186,0.132,2.372,0.395,3.426C6.719,34.783,0,42.424,0,51.515C0,61.66,8.169,69.829,18.314,69.829h63.373 C91.831,69.829,100,61.66,100,51.515C99.868,42.556,93.281,35.046,84.717,33.597z" fill="rgba(255, 255, 255, 0.17368951612903216)" transform="scale(0.6280000000000001)"></path>
</g><g transform="translate(-100 63.25132465794027) rotate(0)">
  <animateTransform attributeName="transform" type="translate" keyTimes="0;1" values="-100 63.25132465794027;2245 63.25132465794027" dur="125s" repeatCount="indefinite" begin="-26.30451117041882s"></animateTransform>
  <path d="M84.717,33.597c0.791-2.503,1.186-5.138,1.186-7.773C85.903,11.594,74.308,0,60.079,0 c-9.881,0-18.445,5.534-22.793,13.702c-1.581-0.527-3.426-0.791-5.138-0.791c-9.486,0-17.128,7.642-17.128,17.128 c0,1.186,0.132,2.372,0.395,3.426C6.719,34.783,0,42.424,0,51.515C0,61.66,8.169,69.829,18.314,69.829h63.373 C91.831,69.829,100,61.66,100,51.515C99.868,42.556,93.281,35.046,84.717,33.597z" fill="rgba(255, 255, 255, 0.17368951612903216)" transform="scale(0.6280000000000001)"></path>
</g><g transform="translate(-100 296.1261685661373) rotate(0)">
  <animateTransform attributeName="transform" type="translate" keyTimes="0;1" values="-100 296.1261685661373;2245 296.1261685661373" dur="125s" repeatCount="indefinite" begin="-32.146225391441185s"></animateTransform>
  <path d="M84.717,33.597c0.791-2.503,1.186-5.138,1.186-7.773C85.903,11.594,74.308,0,60.079,0 c-9.881,0-18.445,5.534-22.793,13.702c-1.581-0.527-3.426-0.791-5.138-0.791c-9.486,0-17.128,7.642-17.128,17.128 c0,1.186,0.132,2.372,0.395,3.426C6.719,34.783,0,42.424,0,51.515C0,61.66,8.169,69.829,18.314,69.829h63.373 C91.831,69.829,100,61.66,100,51.515C99.868,42.556,93.281,35.046,84.717,33.597z" fill="rgba(255, 255, 255, 0.17368951612903216)" transform="scale(0.6280000000000001)"></path>
</g><g transform="translate(-100 995.3972480863649) rotate(0)">
  <animateTransform attributeName="transform" type="translate" keyTimes="0;1" values="-100 995.3972480863649;2245 995.3972480863649" dur="125s" repeatCount="indefinite" begin="-20.218063817071307s"></animateTransform>
  <path d="M84.717,33.597c0.791-2.503,1.186-5.138,1.186-7.773C85.903,11.594,74.308,0,60.079,0 c-9.881,0-18.445,5.534-22.793,13.702c-1.581-0.527-3.426-0.791-5.138-0.791c-9.486,0-17.128,7.642-17.128,17.128 c0,1.186,0.132,2.372,0.395,3.426C6.719,34.783,0,42.424,0,51.515C0,61.66,8.169,69.829,18.314,69.829h63.373 C91.831,69.829,100,61.66,100,51.515C99.868,42.556,93.281,35.046,84.717,33.597z" fill="rgba(255, 255, 255, 0.17368951612903216)" transform="scale(0.6280000000000001)"></path>
</g><g transform="translate(-100 627.0578041664345) rotate(0)">
  <animateTransform attributeName="transform" type="translate" keyTimes="0;1" values="-100 627.0578041664345;2245 627.0578041664345" dur="125s" repeatCount="indefinite" begin="-19.977234775984563s"></animateTransform>
  <path d="M84.717,33.597c0.791-2.503,1.186-5.138,1.186-7.773C85.903,11.594,74.308,0,60.079,0 c-9.881,0-18.445,5.534-22.793,13.702c-1.581-0.527-3.426-0.791-5.138-0.791c-9.486,0-17.128,7.642-17.128,17.128 c0,1.186,0.132,2.372,0.395,3.426C6.719,34.783,0,42.424,0,51.515C0,61.66,8.169,69.829,18.314,69.829h63.373 C91.831,69.829,100,61.66,100,51.515C99.868,42.556,93.281,35.046,84.717,33.597z" fill="rgba(255, 255, 255, 0.17368951612903216)" transform="scale(0.6280000000000001)"></path>
</g><g transform="translate(-100 1169.6466096194915) rotate(0)">
  <animateTransform attributeName="transform" type="translate" keyTimes="0;1" values="-100 1169.6466096194915;2245 1169.6466096194915" dur="125s" repeatCount="indefinite" begin="-111.08792504581716s"></animateTransform>
  <path d="M84.717,33.597c0.791-2.503,1.186-5.138,1.186-7.773C85.903,11.594,74.308,0,60.079,0 c-9.881,0-18.445,5.534-22.793,13.702c-1.581-0.527-3.426-0.791-5.138-0.791c-9.486,0-17.128,7.642-17.128,17.128 c0,1.186,0.132,2.372,0.395,3.426C6.719,34.783,0,42.424,0,51.515C0,61.66,8.169,69.829,18.314,69.829h63.373 C91.831,69.829,100,61.66,100,51.515C99.868,42.556,93.281,35.046,84.717,33.597z" fill="rgba(255, 255, 255, 0.17368951612903216)" transform="scale(0.6280000000000001)"></path>
</g><g transform="translate(-100 769.8342864911659) rotate(0)">
  <animateTransform attributeName="transform" type="translate" keyTimes="0;1" values="-100 769.8342864911659;2245 769.8342864911659" dur="125s" repeatCount="indefinite" begin="-103.61841668362825s"></animateTransform>
  <path d="M84.717,33.597c0.791-2.503,1.186-5.138,1.186-7.773C85.903,11.594,74.308,0,60.079,0 c-9.881,0-18.445,5.534-22.793,13.702c-1.581-0.527-3.426-0.791-5.138-0.791c-9.486,0-17.128,7.642-17.128,17.128 c0,1.186,0.132,2.372,0.395,3.426C6.719,34.783,0,42.424,0,51.515C0,61.66,8.169,69.829,18.314,69.829h63.373 C91.831,69.829,100,61.66,100,51.515C99.868,42.556,93.281,35.046,84.717,33.597z" fill="rgba(255, 255, 255, 0.17368951612903216)" transform="scale(0.6280000000000001)"></path>
</g><g transform="translate(-100 494.97476543190527) rotate(0)">
  <animateTransform attributeName="transform" type="translate" keyTimes="0;1" values="-100 494.97476543190527;2245 494.97476543190527" dur="125s" repeatCount="indefinite" begin="-121.64671300549767s"></animateTransform>
  <path d="M84.717,33.597c0.791-2.503,1.186-5.138,1.186-7.773C85.903,11.594,74.308,0,60.079,0 c-9.881,0-18.445,5.534-22.793,13.702c-1.581-0.527-3.426-0.791-5.138-0.791c-9.486,0-17.128,7.642-17.128,17.128 c0,1.186,0.132,2.372,0.395,3.426C6.719,34.783,0,42.424,0,51.515C0,61.66,8.169,69.829,18.314,69.829h63.373 C91.831,69.829,100,61.66,100,51.515C99.868,42.556,93.281,35.046,84.717,33.597z" fill="rgba(255, 255, 255, 0.17368951612903216)" transform="scale(0.6280000000000001)"></path>
</g><g transform="translate(-100 701.7837438060066) rotate(0)">
  <animateTransform attributeName="transform" type="translate" keyTimes="0;1" values="-100 701.7837438060066;2245 701.7837438060066" dur="83.33333333333333s" repeatCount="indefinite" begin="-66.5263970566109s"></animateTransform>
  <path d="M84.717,33.597c0.791-2.503,1.186-5.138,1.186-7.773C85.903,11.594,74.308,0,60.079,0 c-9.881,0-18.445,5.534-22.793,13.702c-1.581-0.527-3.426-0.791-5.138-0.791c-9.486,0-17.128,7.642-17.128,17.128 c0,1.186,0.132,2.372,0.395,3.426C6.719,34.783,0,42.424,0,51.515C0,61.66,8.169,69.829,18.314,69.829h63.373 C91.831,69.829,100,61.66,100,51.515C99.868,42.556,93.281,35.046,84.717,33.597z" fill="rgba(255, 255, 255, 0.17368951612903216)" transform="scale(0.714)"></path>
</g><g transform="translate(-100 957.7906339227792) rotate(0)">
  <animateTransform attributeName="transform" type="translate" keyTimes="0;1" values="-100 957.7906339227792;2245 957.7906339227792" dur="83.33333333333333s" repeatCount="indefinite" begin="-184.1134020638338s"></animateTransform>
  <path d="M84.717,33.597c0.791-2.503,1.186-5.138,1.186-7.773C85.903,11.594,74.308,0,60.079,0 c-9.881,0-18.445,5.534-22.793,13.702c-1.581-0.527-3.426-0.791-5.138-0.791c-9.486,0-17.128,7.642-17.128,17.128 c0,1.186,0.132,2.372,0.395,3.426C6.719,34.783,0,42.424,0,51.515C0,61.66,8.169,69.829,18.314,69.829h63.373 C91.831,69.829,100,61.66,100,51.515C99.868,42.556,93.281,35.046,84.717,33.597z" fill="rgba(255, 255, 255, 0.17368951612903216)" transform="scale(0.714)"></path>
</g><g transform="translate(-100 851.8025950029473) rotate(0)">
  <animateTransform attributeName="transform" type="translate" keyTimes="0;1" values="-100 851.8025950029473;2245 851.8025950029473" dur="83.33333333333333s" repeatCount="indefinite" begin="-240.19864853553423s"></animateTransform>
  <path d="M84.717,33.597c0.791-2.503,1.186-5.138,1.186-7.773C85.903,11.594,74.308,0,60.079,0 c-9.881,0-18.445,5.534-22.793,13.702c-1.581-0.527-3.426-0.791-5.138-0.791c-9.486,0-17.128,7.642-17.128,17.128 c0,1.186,0.132,2.372,0.395,3.426C6.719,34.783,0,42.424,0,51.515C0,61.66,8.169,69.829,18.314,69.829h63.373 C91.831,69.829,100,61.66,100,51.515C99.868,42.556,93.281,35.046,84.717,33.597z" fill="rgba(255, 255, 255, 0.17368951612903216)" transform="scale(0.714)"></path>
</g><g transform="translate(-100 1166.641690609149) rotate(0)">
  <animateTransform attributeName="transform" type="translate" keyTimes="0;1" values="-100 1166.641690609149;2245 1166.641690609149" dur="83.33333333333333s" repeatCount="indefinite" begin="-40.39946707689362s"></animateTransform>
  <path d="M84.717,33.597c0.791-2.503,1.186-5.138,1.186-7.773C85.903,11.594,74.308,0,60.079,0 c-9.881,0-18.445,5.534-22.793,13.702c-1.581-0.527-3.426-0.791-5.138-0.791c-9.486,0-17.128,7.642-17.128,17.128 c0,1.186,0.132,2.372,0.395,3.426C6.719,34.783,0,42.424,0,51.515C0,61.66,8.169,69.829,18.314,69.829h63.373 C91.831,69.829,100,61.66,100,51.515C99.868,42.556,93.281,35.046,84.717,33.597z" fill="rgba(255, 255, 255, 0.17368951612903216)" transform="scale(0.714)"></path>
</g><g transform="translate(-100 949.3081407554813) rotate(0)">
  <animateTransform attributeName="transform" type="translate" keyTimes="0;1" values="-100 949.3081407554813;2245 949.3081407554813" dur="83.33333333333333s" repeatCount="indefinite" begin="-162.0222418676897s"></animateTransform>
  <path d="M84.717,33.597c0.791-2.503,1.186-5.138,1.186-7.773C85.903,11.594,74.308,0,60.079,0 c-9.881,0-18.445,5.534-22.793,13.702c-1.581-0.527-3.426-0.791-5.138-0.791c-9.486,0-17.128,7.642-17.128,17.128 c0,1.186,0.132,2.372,0.395,3.426C6.719,34.783,0,42.424,0,51.515C0,61.66,8.169,69.829,18.314,69.829h63.373 C91.831,69.829,100,61.66,100,51.515C99.868,42.556,93.281,35.046,84.717,33.597z" fill="rgba(255, 255, 255, 0.17368951612903216)" transform="scale(0.714)"></path>
</g><g transform="translate(-100 98.46075315355361) rotate(0)">
  <animateTransform attributeName="transform" type="translate" keyTimes="0;1" values="-100 98.46075315355361;2245 98.46075315355361" dur="83.33333333333333s" repeatCount="indefinite" begin="-135.58300650103033s"></animateTransform>
  <path d="M84.717,33.597c0.791-2.503,1.186-5.138,1.186-7.773C85.903,11.594,74.308,0,60.079,0 c-9.881,0-18.445,5.534-22.793,13.702c-1.581-0.527-3.426-0.791-5.138-0.791c-9.486,0-17.128,7.642-17.128,17.128 c0,1.186,0.132,2.372,0.395,3.426C6.719,34.783,0,42.424,0,51.515C0,61.66,8.169,69.829,18.314,69.829h63.373 C91.831,69.829,100,61.66,100,51.515C99.868,42.556,93.281,35.046,84.717,33.597z" fill="rgba(255, 255, 255, 0.17368951612903216)" transform="scale(0.714)"></path>
</g><g transform="translate(-100 1087.0225903886717) rotate(0)">
  <animateTransform attributeName="transform" type="translate" keyTimes="0;1" values="-100 1087.0225903886717;2245 1087.0225903886717" dur="83.33333333333333s" repeatCount="indefinite" begin="-137.5723071033837s"></animateTransform>
  <path d="M84.717,33.597c0.791-2.503,1.186-5.138,1.186-7.773C85.903,11.594,74.308,0,60.079,0 c-9.881,0-18.445,5.534-22.793,13.702c-1.581-0.527-3.426-0.791-5.138-0.791c-9.486,0-17.128,7.642-17.128,17.128 c0,1.186,0.132,2.372,0.395,3.426C6.719,34.783,0,42.424,0,51.515C0,61.66,8.169,69.829,18.314,69.829h63.373 C91.831,69.829,100,61.66,100,51.515C99.868,42.556,93.281,35.046,84.717,33.597z" fill="rgba(255, 255, 255, 0.17368951612903216)" transform="scale(0.714)"></path>
</g><g transform="translate(-100 18.591252725104525) rotate(0)">
  <animateTransform attributeName="transform" type="translate" keyTimes="0;1" values="-100 18.591252725104525;2245 18.591252725104525" dur="83.33333333333333s" repeatCount="indefinite" begin="-179.21190539609992s"></animateTransform>
  <path d="M84.717,33.597c0.791-2.503,1.186-5.138,1.186-7.773C85.903,11.594,74.308,0,60.079,0 c-9.881,0-18.445,5.534-22.793,13.702c-1.581-0.527-3.426-0.791-5.138-0.791c-9.486,0-17.128,7.642-17.128,17.128 c0,1.186,0.132,2.372,0.395,3.426C6.719,34.783,0,42.424,0,51.515C0,61.66,8.169,69.829,18.314,69.829h63.373 C91.831,69.829,100,61.66,100,51.515C99.868,42.556,93.281,35.046,84.717,33.597z" fill="rgba(255, 255, 255, 0.17368951612903216)" transform="scale(0.714)"></path>
</g><g transform="translate(-100 502.7544248460323) rotate(0)">
  <animateTransform attributeName="transform" type="translate" keyTimes="0;1" values="-100 502.7544248460323;2245 502.7544248460323" dur="83.33333333333333s" repeatCount="indefinite" begin="-100.29208821103586s"></animateTransform>
  <path d="M84.717,33.597c0.791-2.503,1.186-5.138,1.186-7.773C85.903,11.594,74.308,0,60.079,0 c-9.881,0-18.445,5.534-22.793,13.702c-1.581-0.527-3.426-0.791-5.138-0.791c-9.486,0-17.128,7.642-17.128,17.128 c0,1.186,0.132,2.372,0.395,3.426C6.719,34.783,0,42.424,0,51.515C0,61.66,8.169,69.829,18.314,69.829h63.373 C91.831,69.829,100,61.66,100,51.515C99.868,42.556,93.281,35.046,84.717,33.597z" fill="rgba(255, 255, 255, 0.17368951612903216)" transform="scale(0.714)"></path>
</g><g transform="translate(-100 597.2696370705742) rotate(0)">
  <animateTransform attributeName="transform" type="translate" keyTimes="0;1" values="-100 597.2696370705742;2245 597.2696370705742" dur="83.33333333333333s" repeatCount="indefinite" begin="-173.07360325903105s"></animateTransform>
  <path d="M84.717,33.597c0.791-2.503,1.186-5.138,1.186-7.773C85.903,11.594,74.308,0,60.079,0 c-9.881,0-18.445,5.534-22.793,13.702c-1.581-0.527-3.426-0.791-5.138-0.791c-9.486,0-17.128,7.642-17.128,17.128 c0,1.186,0.132,2.372,0.395,3.426C6.719,34.783,0,42.424,0,51.515C0,61.66,8.169,69.829,18.314,69.829h63.373 C91.831,69.829,100,61.66,100,51.515C99.868,42.556,93.281,35.046,84.717,33.597z" fill="rgba(255, 255, 255, 0.17368951612903216)" transform="scale(0.714)"></path>
</g><g transform="translate(-100 141.22065100380595) rotate(0)">
  <animateTransform attributeName="transform" type="translate" keyTimes="0;1" values="-100 141.22065100380595;2245 141.22065100380595" dur="83.33333333333333s" repeatCount="indefinite" begin="-0.026439467937566796s"></animateTransform>
  <path d="M84.717,33.597c0.791-2.503,1.186-5.138,1.186-7.773C85.903,11.594,74.308,0,60.079,0 c-9.881,0-18.445,5.534-22.793,13.702c-1.581-0.527-3.426-0.791-5.138-0.791c-9.486,0-17.128,7.642-17.128,17.128 c0,1.186,0.132,2.372,0.395,3.426C6.719,34.783,0,42.424,0,51.515C0,61.66,8.169,69.829,18.314,69.829h63.373 C91.831,69.829,100,61.66,100,51.515C99.868,42.556,93.281,35.046,84.717,33.597z" fill="rgba(255, 255, 255, 0.17368951612903216)" transform="scale(0.714)"></path>
</g><g transform="translate(-100 840.5276183916053) rotate(0)">
  <animateTransform attributeName="transform" type="translate" keyTimes="0;1" values="-100 840.5276183916053;2245 840.5276183916053" dur="83.33333333333333s" repeatCount="indefinite" begin="-54.18712859313085s"></animateTransform>
  <path d="M84.717,33.597c0.791-2.503,1.186-5.138,1.186-7.773C85.903,11.594,74.308,0,60.079,0 c-9.881,0-18.445,5.534-22.793,13.702c-1.581-0.527-3.426-0.791-5.138-0.791c-9.486,0-17.128,7.642-17.128,17.128 c0,1.186,0.132,2.372,0.395,3.426C6.719,34.783,0,42.424,0,51.515C0,61.66,8.169,69.829,18.314,69.829h63.373 C91.831,69.829,100,61.66,100,51.515C99.868,42.556,93.281,35.046,84.717,33.597z" fill="rgba(255, 255, 255, 0.17368951612903216)" transform="scale(0.714)"></path>
</g><g transform="translate(-100 681.8138875496352) rotate(0)">
  <animateTransform attributeName="transform" type="translate" keyTimes="0;1" values="-100 681.8138875496352;2245 681.8138875496352" dur="62.5s" repeatCount="indefinite" begin="-159.15596546510685s"></animateTransform>
  <path d="M84.717,33.597c0.791-2.503,1.186-5.138,1.186-7.773C85.903,11.594,74.308,0,60.079,0 c-9.881,0-18.445,5.534-22.793,13.702c-1.581-0.527-3.426-0.791-5.138-0.791c-9.486,0-17.128,7.642-17.128,17.128 c0,1.186,0.132,2.372,0.395,3.426C6.719,34.783,0,42.424,0,51.515C0,61.66,8.169,69.829,18.314,69.829h63.373 C91.831,69.829,100,61.66,100,51.515C99.868,42.556,93.281,35.046,84.717,33.597z" fill="rgba(255, 255, 255, 0.17368951612903216)" transform="scale(0.8)"></path>
</g><g transform="translate(-100 580.0593107527152) rotate(0)">
  <animateTransform attributeName="transform" type="translate" keyTimes="0;1" values="-100 580.0593107527152;2245 580.0593107527152" dur="62.5s" repeatCount="indefinite" begin="-22.053898930512627s"></animateTransform>
  <path d="M84.717,33.597c0.791-2.503,1.186-5.138,1.186-7.773C85.903,11.594,74.308,0,60.079,0 c-9.881,0-18.445,5.534-22.793,13.702c-1.581-0.527-3.426-0.791-5.138-0.791c-9.486,0-17.128,7.642-17.128,17.128 c0,1.186,0.132,2.372,0.395,3.426C6.719,34.783,0,42.424,0,51.515C0,61.66,8.169,69.829,18.314,69.829h63.373 C91.831,69.829,100,61.66,100,51.515C99.868,42.556,93.281,35.046,84.717,33.597z" fill="rgba(255, 255, 255, 0.17368951612903216)" transform="scale(0.8)"></path>
</g><g transform="translate(-100 990.0797414381103) rotate(0)">
  <animateTransform attributeName="transform" type="translate" keyTimes="0;1" values="-100 990.0797414381103;2245 990.0797414381103" dur="62.5s" repeatCount="indefinite" begin="-238.94602695696582s"></animateTransform>
  <path d="M84.717,33.597c0.791-2.503,1.186-5.138,1.186-7.773C85.903,11.594,74.308,0,60.079,0 c-9.881,0-18.445,5.534-22.793,13.702c-1.581-0.527-3.426-0.791-5.138-0.791c-9.486,0-17.128,7.642-17.128,17.128 c0,1.186,0.132,2.372,0.395,3.426C6.719,34.783,0,42.424,0,51.515C0,61.66,8.169,69.829,18.314,69.829h63.373 C91.831,69.829,100,61.66,100,51.515C99.868,42.556,93.281,35.046,84.717,33.597z" fill="rgba(255, 255, 255, 0.17368951612903216)" transform="scale(0.8)"></path>
</g><g transform="translate(-100 259.65711525969783) rotate(0)">
  <animateTransform attributeName="transform" type="translate" keyTimes="0;1" values="-100 259.65711525969783;2245 259.65711525969783" dur="62.5s" repeatCount="indefinite" begin="-57.7503841302362s"></animateTransform>
  <path d="M84.717,33.597c0.791-2.503,1.186-5.138,1.186-7.773C85.903,11.594,74.308,0,60.079,0 c-9.881,0-18.445,5.534-22.793,13.702c-1.581-0.527-3.426-0.791-5.138-0.791c-9.486,0-17.128,7.642-17.128,17.128 c0,1.186,0.132,2.372,0.395,3.426C6.719,34.783,0,42.424,0,51.515C0,61.66,8.169,69.829,18.314,69.829h63.373 C91.831,69.829,100,61.66,100,51.515C99.868,42.556,93.281,35.046,84.717,33.597z" fill="rgba(255, 255, 255, 0.17368951612903216)" transform="scale(0.8)"></path>
</g><g transform="translate(-100 231.79551805529294) rotate(0)">
  <animateTransform attributeName="transform" type="translate" keyTimes="0;1" values="-100 231.79551805529294;2245 231.79551805529294" dur="62.5s" repeatCount="indefinite" begin="-7.638092771993454s"></animateTransform>
  <path d="M84.717,33.597c0.791-2.503,1.186-5.138,1.186-7.773C85.903,11.594,74.308,0,60.079,0 c-9.881,0-18.445,5.534-22.793,13.702c-1.581-0.527-3.426-0.791-5.138-0.791c-9.486,0-17.128,7.642-17.128,17.128 c0,1.186,0.132,2.372,0.395,3.426C6.719,34.783,0,42.424,0,51.515C0,61.66,8.169,69.829,18.314,69.829h63.373 C91.831,69.829,100,61.66,100,51.515C99.868,42.556,93.281,35.046,84.717,33.597z" fill="rgba(255, 255, 255, 0.17368951612903216)" transform="scale(0.8)"></path>
</g><g transform="translate(-100 1143.5501119099551) rotate(0)">
  <animateTransform attributeName="transform" type="translate" keyTimes="0;1" values="-100 1143.5501119099551;2245 1143.5501119099551" dur="62.5s" repeatCount="indefinite" begin="-223.7016755424328s"></animateTransform>
  <path d="M84.717,33.597c0.791-2.503,1.186-5.138,1.186-7.773C85.903,11.594,74.308,0,60.079,0 c-9.881,0-18.445,5.534-22.793,13.702c-1.581-0.527-3.426-0.791-5.138-0.791c-9.486,0-17.128,7.642-17.128,17.128 c0,1.186,0.132,2.372,0.395,3.426C6.719,34.783,0,42.424,0,51.515C0,61.66,8.169,69.829,18.314,69.829h63.373 C91.831,69.829,100,61.66,100,51.515C99.868,42.556,93.281,35.046,84.717,33.597z" fill="rgba(255, 255, 255, 0.17368951612903216)" transform="scale(0.8)"></path>
</g><g transform="translate(-100 776.8589255905088) rotate(0)">
  <animateTransform attributeName="transform" type="translate" keyTimes="0;1" values="-100 776.8589255905088;2245 776.8589255905088" dur="62.5s" repeatCount="indefinite" begin="-175.56137201225613s"></animateTransform>
  <path d="M84.717,33.597c0.791-2.503,1.186-5.138,1.186-7.773C85.903,11.594,74.308,0,60.079,0 c-9.881,0-18.445,5.534-22.793,13.702c-1.581-0.527-3.426-0.791-5.138-0.791c-9.486,0-17.128,7.642-17.128,17.128 c0,1.186,0.132,2.372,0.395,3.426C6.719,34.783,0,42.424,0,51.515C0,61.66,8.169,69.829,18.314,69.829h63.373 C91.831,69.829,100,61.66,100,51.515C99.868,42.556,93.281,35.046,84.717,33.597z" fill="rgba(255, 255, 255, 0.17368951612903216)" transform="scale(0.8)"></path>
</g><g transform="translate(-100 619.4905968341283) rotate(0)">
  <animateTransform attributeName="transform" type="translate" keyTimes="0;1" values="-100 619.4905968341283;2245 619.4905968341283" dur="62.5s" repeatCount="indefinite" begin="-10.382755576480774s"></animateTransform>
  <path d="M84.717,33.597c0.791-2.503,1.186-5.138,1.186-7.773C85.903,11.594,74.308,0,60.079,0 c-9.881,0-18.445,5.534-22.793,13.702c-1.581-0.527-3.426-0.791-5.138-0.791c-9.486,0-17.128,7.642-17.128,17.128 c0,1.186,0.132,2.372,0.395,3.426C6.719,34.783,0,42.424,0,51.515C0,61.66,8.169,69.829,18.314,69.829h63.373 C91.831,69.829,100,61.66,100,51.515C99.868,42.556,93.281,35.046,84.717,33.597z" fill="rgba(255, 255, 255, 0.17368951612903216)" transform="scale(0.8)"></path>
</g><g transform="translate(-100 101.7842194709962) rotate(0)">
  <animateTransform attributeName="transform" type="translate" keyTimes="0;1" values="-100 101.7842194709962;2245 101.7842194709962" dur="62.5s" repeatCount="indefinite" begin="-228.59466553317333s"></animateTransform>
  <path d="M84.717,33.597c0.791-2.503,1.186-5.138,1.186-7.773C85.903,11.594,74.308,0,60.079,0 c-9.881,0-18.445,5.534-22.793,13.702c-1.581-0.527-3.426-0.791-5.138-0.791c-9.486,0-17.128,7.642-17.128,17.128 c0,1.186,0.132,2.372,0.395,3.426C6.719,34.783,0,42.424,0,51.515C0,61.66,8.169,69.829,18.314,69.829h63.373 C91.831,69.829,100,61.66,100,51.515C99.868,42.556,93.281,35.046,84.717,33.597z" fill="rgba(255, 255, 255, 0.17368951612903216)" transform="scale(0.8)"></path>
</g><g transform="translate(-100 973.1648337940951) rotate(0)">
  <animateTransform attributeName="transform" type="translate" keyTimes="0;1" values="-100 973.1648337940951;2245 973.1648337940951" dur="62.5s" repeatCount="indefinite" begin="-84.96171744246067s"></animateTransform>
  <path d="M84.717,33.597c0.791-2.503,1.186-5.138,1.186-7.773C85.903,11.594,74.308,0,60.079,0 c-9.881,0-18.445,5.534-22.793,13.702c-1.581-0.527-3.426-0.791-5.138-0.791c-9.486,0-17.128,7.642-17.128,17.128 c0,1.186,0.132,2.372,0.395,3.426C6.719,34.783,0,42.424,0,51.515C0,61.66,8.169,69.829,18.314,69.829h63.373 C91.831,69.829,100,61.66,100,51.515C99.868,42.556,93.281,35.046,84.717,33.597z" fill="rgba(255, 255, 255, 0.17368951612903216)" transform="scale(0.8)"></path>
</g><g transform="translate(-100 1198.7900386920062) rotate(0)">
  <animateTransform attributeName="transform" type="translate" keyTimes="0;1" values="-100 1198.7900386920062;2245 1198.7900386920062" dur="62.5s" repeatCount="indefinite" begin="-197.84944431479346s"></animateTransform>
  <path d="M84.717,33.597c0.791-2.503,1.186-5.138,1.186-7.773C85.903,11.594,74.308,0,60.079,0 c-9.881,0-18.445,5.534-22.793,13.702c-1.581-0.527-3.426-0.791-5.138-0.791c-9.486,0-17.128,7.642-17.128,17.128 c0,1.186,0.132,2.372,0.395,3.426C6.719,34.783,0,42.424,0,51.515C0,61.66,8.169,69.829,18.314,69.829h63.373 C91.831,69.829,100,61.66,100,51.515C99.868,42.556,93.281,35.046,84.717,33.597z" fill="rgba(255, 255, 255, 0.17368951612903216)" transform="scale(0.8)"></path>
</g><g transform="translate(-100 146.34914443775637) rotate(0)">
  <animateTransform attributeName="transform" type="translate" keyTimes="0;1" values="-100 146.34914443775637;2245 146.34914443775637" dur="62.5s" repeatCount="indefinite" begin="-189.21624191843767s"></animateTransform>
  <path d="M84.717,33.597c0.791-2.503,1.186-5.138,1.186-7.773C85.903,11.594,74.308,0,60.079,0 c-9.881,0-18.445,5.534-22.793,13.702c-1.581-0.527-3.426-0.791-5.138-0.791c-9.486,0-17.128,7.642-17.128,17.128 c0,1.186,0.132,2.372,0.395,3.426C6.719,34.783,0,42.424,0,51.515C0,61.66,8.169,69.829,18.314,69.829h63.373 C91.831,69.829,100,61.66,100,51.515C99.868,42.556,93.281,35.046,84.717,33.597z" fill="rgba(255, 255, 255, 0.17368951612903216)" transform="scale(0.8)"></path>
</g><g transform="translate(-100 126.43022054762388) rotate(0)">
  <animateTransform attributeName="transform" type="translate" keyTimes="0;1" values="-100 126.43022054762388;2245 126.43022054762388" dur="62.5s" repeatCount="indefinite" begin="-137.01218143410006s"></animateTransform>
  <path d="M84.717,33.597c0.791-2.503,1.186-5.138,1.186-7.773C85.903,11.594,74.308,0,60.079,0 c-9.881,0-18.445,5.534-22.793,13.702c-1.581-0.527-3.426-0.791-5.138-0.791c-9.486,0-17.128,7.642-17.128,17.128 c0,1.186,0.132,2.372,0.395,3.426C6.719,34.783,0,42.424,0,51.515C0,61.66,8.169,69.829,18.314,69.829h63.373 C91.831,69.829,100,61.66,100,51.515C99.868,42.556,93.281,35.046,84.717,33.597z" fill="rgba(255, 255, 255, 0.17368951612903216)" transform="scale(0.8)"></path>
</g></g>
</svg>